<svg width="16" height="16" viewBox="0 0 20 20" fill="none" xmlns="http://www.w3.org/2000/svg">
<path d="M6.10938 2.56641L6.01172 3.07422L5.69922 4.87109L5.5625 5.61328H14.3906L14.1953 6.74609H5.36719L5.26953 7.25391L4.95703 9.05078L4.82031 9.77344H13.6484L13.1992 12.3125L9.9375 13.8164L7.37891 12.4102L7.51562 11.6484L7.65234 10.9258H4.60547L4.52734 11.4336L4.09766 13.8164L4 14.2852L4.42969 14.5L9.3125 16.8828L9.56641 17L9.82031 16.9023L15.543 14.5L15.8555 14.3828L15.9336 14.0312L17.8477 3.30859L17.9844 2.56641H6.10938ZM7.06641 4.36328L15.8262 4.72461L14.7617 9.05078V13.4844L9.56641 15L6.14844 12.1758L5.99219 13.0742L6.38281 13.2891L9 15.5H9.86135L9.9375 16L13.6484 14.5L14.3906 14.0312L14.7617 13.9352L15.0156 9.26562L15.1523 8.52344H6.32422L10.4727 9L14.7617 9.05078L15.3281 7.46875L15.7578 5.08594L15.8945 4.36328H7.06641Z" fill="#5EA3EF"/>
</svg>
