<svg width="14" height="14" viewBox="0 0 20 20" fill="none" xmlns="http://www.w3.org/2000/svg">
<path d="M18.1094 0.929691C18.0344 0.846878 17.9266 0.800003 17.8141 0.800003H2.18595C2.07345 0.800003 1.96564 0.846878 1.89064 0.929691C1.81407 1.0125 1.77657 1.12344 1.78751 1.23594L3.19532 17.0063C3.20939 17.1719 3.32501 17.3094 3.48439 17.3563L9.88907 19.1844C9.92345 19.1953 9.96095 19.2 9.99845 19.2C10.0359 19.2 10.0719 19.1953 10.1078 19.1844L16.5172 17.3563C16.6766 17.3094 16.7906 17.1719 16.8063 17.0063L18.2125 1.23594C18.2234 1.12344 18.1859 1.0125 18.1094 0.929691ZM14.7391 6.36719H7.21407L7.39376 8.40313H14.5578L14.0203 14.4203L9.99689 15.6359L9.95782 15.6234L5.98126 14.4188L5.76407 11.9672H7.71251L7.79689 12.9188L10.0203 13.3844L12.2031 12.9188L12.4359 10.3438H5.61876L5.08907 4.42188H14.9125L14.7391 6.36719Z" fill="#D35836"/>
</svg>
